# MagicaVoxel @ Ephtracy

# material
mtllib dude.mtl
usemtl palette

# normals
vn -1 0 0
vn 1 0 0
vn 0 0 1
vn 0 0 -1
vn 0 -1 0
vn 0 1 0

# texcoords
vt 0.0332031 0.5
vt 0.857422 0.5
vt 0.958984 0.5
vt 0.978516 0.5
vt 0.994141 0.5

# verts
v -1 0 3
v -1 0 1
v -1 0 -1
v -1 0 -3
v -1 3 1
v -1 3 -1
v -1 5 5
v -1 5 4
v -1 5 1
v -1 5 -1
v -1 5 -4
v -1 5 -5
v -1 6 5
v -1 6 4
v -1 6 -4
v -1 6 -5
v -1 8 4
v -1 8 3
v -1 8 -3
v -1 8 -4
v -1 10 5
v -1 10 3
v -1 10 2
v -1 10 1
v -1 10 -1
v -1 10 -2
v -1 10 -3
v -1 10 -5
v -1 11 3
v -1 11 2
v -1 11 1
v -1 11 -1
v -1 11 -2
v -1 11 -3
v -1 12 2
v -1 12 1
v -1 12 -1
v -1 12 -2
v -1 13 2
v -1 13 1
v -1 13 -1
v -1 13 -2
v -1 14 2
v -1 14 -2
v 1 0 3
v 1 0 1
v 1 0 -1
v 1 0 -3
v 1 3 1
v 1 3 -1
v 1 5 5
v 1 5 4
v 1 5 -4
v 1 5 -5
v 1 6 5
v 1 6 4
v 1 6 -4
v 1 6 -5
v 1 8 4
v 1 8 3
v 1 8 -3
v 1 8 -4
v 1 10 5
v 1 10 3
v 1 10 -3
v 1 10 -5
v 1 11 3
v 1 11 2
v 1 11 -2
v 1 11 -3
v 1 14 2
v 1 14 -2
v -1 5 5
v -1 6 5
v -1 10 5
v 1 5 5
v 1 6 5
v 1 10 5
v -1 0 3
v -1 8 3
v -1 10 3
v -1 11 3
v 1 0 3
v 1 8 3
v 1 10 3
v 1 11 3
v -1 11 2
v -1 12 2
v -1 13 2
v -1 14 2
v 0 12 2
v 0 13 2
v 1 11 2
v 1 14 2
v -1 0 -1
v -1 3 -1
v 1 0 -1
v 1 3 -1
v -1 5 -4
v -1 6 -4
v -1 8 -4
v 1 5 -4
v 1 6 -4
v 1 8 -4
v -1 5 4
v -1 6 4
v -1 8 4
v 1 5 4
v 1 6 4
v 1 8 4
v -1 0 1
v -1 3 1
v 1 0 1
v 1 3 1
v -1 11 -2
v -1 12 -2
v -1 13 -2
v -1 14 -2
v 0 12 -2
v 0 13 -2
v 1 11 -2
v 1 14 -2
v -1 0 -3
v -1 8 -3
v -1 10 -3
v -1 11 -3
v 1 0 -3
v 1 8 -3
v 1 10 -3
v 1 11 -3
v -1 5 -5
v -1 6 -5
v -1 10 -5
v 1 5 -5
v 1 6 -5
v 1 10 -5
v -1 0 3
v 1 0 3
v -1 0 1
v 1 0 1
v -1 0 -1
v 1 0 -1
v -1 0 -3
v 1 0 -3
v -1 3 1
v 1 3 1
v -1 3 -1
v 1 3 -1
v -1 5 5
v 1 5 5
v -1 5 4
v 1 5 4
v -1 5 -4
v 1 5 -4
v -1 5 -5
v 1 5 -5
v -1 8 4
v 1 8 4
v -1 8 3
v 1 8 3
v -1 8 -3
v 1 8 -3
v -1 8 -4
v 1 8 -4
v -1 10 5
v 1 10 5
v -1 10 3
v 1 10 3
v -1 10 -3
v 1 10 -3
v -1 10 -5
v 1 10 -5
v -1 11 3
v 1 11 3
v -1 11 2
v 1 11 2
v -1 11 -2
v 1 11 -2
v -1 11 -3
v 1 11 -3
v -1 14 2
v 1 14 2
v -1 14 -2
v 1 14 -2

# faces
f 5/5/1 2/5/1 1/5/1
f 6/5/1 4/5/1 3/5/1
f 9/5/1 5/5/1 1/5/1
f 9/5/1 6/5/1 5/5/1
f 10/5/1 4/5/1 6/5/1
f 10/5/1 6/5/1 9/5/1
f 13/1/1 8/1/1 7/1/1
f 14/1/1 8/1/1 13/1/1
f 15/1/1 12/1/1 11/1/1
f 16/1/1 12/1/1 15/1/1
f 17/5/1 14/5/1 13/5/1
f 18/5/1 9/5/1 1/5/1
f 19/5/1 4/5/1 10/5/1
f 20/5/1 16/5/1 15/5/1
f 21/5/1 17/5/1 13/5/1
f 21/5/1 18/5/1 17/5/1
f 22/5/1 9/5/1 18/5/1
f 22/5/1 18/5/1 21/5/1
f 23/5/1 9/5/1 22/5/1
f 24/3/1 10/3/1 9/3/1
f 24/5/1 9/5/1 23/5/1
f 25/5/1 20/5/1 19/5/1
f 25/3/1 10/3/1 24/3/1
f 25/5/1 19/5/1 10/5/1
f 26/5/1 20/5/1 25/5/1
f 27/5/1 20/5/1 26/5/1
f 28/5/1 16/5/1 20/5/1
f 28/5/1 20/5/1 27/5/1
f 29/5/1 23/5/1 22/5/1
f 30/1/1 24/1/1 23/1/1
f 30/5/1 23/5/1 29/5/1
f 31/4/1 25/4/1 24/4/1
f 31/1/1 24/1/1 30/1/1
f 32/1/1 26/1/1 25/1/1
f 32/4/1 25/4/1 31/4/1
f 33/5/1 27/5/1 26/5/1
f 33/1/1 26/1/1 32/1/1
f 34/5/1 27/5/1 33/5/1
f 35/1/1 32/1/1 31/1/1
f 35/1/1 31/1/1 30/1/1
f 35/1/1 33/1/1 32/1/1
f 36/1/1 33/1/1 35/1/1
f 37/1/1 33/1/1 36/1/1
f 38/1/1 33/1/1 37/1/1
f 39/2/1 36/2/1 35/2/1
f 40/1/1 37/1/1 36/1/1
f 40/2/1 36/2/1 39/2/1
f 41/2/1 38/2/1 37/2/1
f 41/1/1 37/1/1 40/1/1
f 42/2/1 38/2/1 41/2/1
f 43/1/1 40/1/1 39/1/1
f 43/1/1 41/1/1 40/1/1
f 43/1/1 42/1/1 41/1/1
f 44/1/1 42/1/1 43/1/1
f 45/5/2 46/5/2 49/5/2
f 47/5/2 48/5/2 50/5/2
f 51/1/2 52/1/2 55/1/2
f 55/1/2 52/1/2 56/1/2
f 53/1/2 54/1/2 57/1/2
f 57/1/2 54/1/2 58/1/2
f 55/5/2 56/5/2 59/5/2
f 45/5/2 49/5/2 60/5/2
f 49/5/2 50/5/2 60/5/2
f 50/5/2 48/5/2 61/5/2
f 60/5/2 50/5/2 61/5/2
f 57/5/2 58/5/2 62/5/2
f 55/5/2 59/5/2 63/5/2
f 61/5/2 62/5/2 63/5/2
f 59/5/2 60/5/2 63/5/2
f 60/5/2 61/5/2 63/5/2
f 63/5/2 62/5/2 64/5/2
f 64/5/2 62/5/2 65/5/2
f 62/5/2 58/5/2 66/5/2
f 65/5/2 62/5/2 66/5/2
f 64/5/2 65/5/2 67/5/2
f 67/5/2 65/5/2 68/5/2
f 68/5/2 65/5/2 69/5/2
f 69/5/2 65/5/2 70/5/2
f 68/1/2 69/1/2 71/1/2
f 71/1/2 69/1/2 72/1/2
f 76/1/3 74/1/3 73/1/3
f 77/5/3 75/5/3 74/5/3
f 77/1/3 74/1/3 76/1/3
f 78/5/3 75/5/3 77/5/3
f 83/5/3 80/5/3 79/5/3
f 84/5/3 80/5/3 83/5/3
f 85/5/3 82/5/3 81/5/3
f 86/5/3 82/5/3 85/5/3
f 91/1/3 88/1/3 87/1/3
f 91/2/3 89/2/3 88/2/3
f 92/1/3 90/1/3 89/1/3
f 92/2/3 89/2/3 91/2/3
f 93/1/3 91/1/3 87/1/3
f 93/1/3 92/1/3 91/1/3
f 94/1/3 90/1/3 92/1/3
f 94/1/3 92/1/3 93/1/3
f 97/5/3 96/5/3 95/5/3
f 98/5/3 96/5/3 97/5/3
f 102/1/3 100/1/3 99/1/3
f 103/5/3 101/5/3 100/5/3
f 103/1/3 100/1/3 102/1/3
f 104/5/3 101/5/3 103/5/3
f 105/1/4 106/1/4 108/1/4
f 106/5/4 107/5/4 109/5/4
f 108/1/4 106/1/4 109/1/4
f 109/5/4 107/5/4 110/5/4
f 111/5/4 112/5/4 113/5/4
f 113/5/4 112/5/4 114/5/4
f 115/1/4 116/1/4 119/1/4
f 116/2/4 117/2/4 119/2/4
f 117/1/4 118/1/4 120/1/4
f 119/2/4 117/2/4 120/2/4
f 115/1/4 119/1/4 121/1/4
f 119/1/4 120/1/4 121/1/4
f 120/1/4 118/1/4 122/1/4
f 121/1/4 120/1/4 122/1/4
f 123/5/4 124/5/4 127/5/4
f 127/5/4 124/5/4 128/5/4
f 125/5/4 126/5/4 129/5/4
f 129/5/4 126/5/4 130/5/4
f 131/1/4 132/1/4 134/1/4
f 132/5/4 133/5/4 135/5/4
f 134/1/4 132/1/4 135/1/4
f 135/5/4 133/5/4 136/5/4
f 139/5/5 138/5/5 137/5/5
f 140/5/5 138/5/5 139/5/5
f 143/5/5 142/5/5 141/5/5
f 144/5/5 142/5/5 143/5/5
f 147/5/5 146/5/5 145/5/5
f 148/5/5 146/5/5 147/5/5
f 151/1/5 150/1/5 149/1/5
f 152/1/5 150/1/5 151/1/5
f 155/1/5 154/1/5 153/1/5
f 156/1/5 154/1/5 155/1/5
f 159/5/5 158/5/5 157/5/5
f 160/5/5 158/5/5 159/5/5
f 163/5/5 162/5/5 161/5/5
f 164/5/5 162/5/5 163/5/5
f 165/5/6 166/5/6 167/5/6
f 167/5/6 166/5/6 168/5/6
f 169/5/6 170/5/6 171/5/6
f 171/5/6 170/5/6 172/5/6
f 173/5/6 174/5/6 175/5/6
f 175/5/6 174/5/6 176/5/6
f 177/5/6 178/5/6 179/5/6
f 179/5/6 178/5/6 180/5/6
f 181/1/6 182/1/6 183/1/6
f 183/1/6 182/1/6 184/1/6
