# MagicaVoxel @ Ephtracy

# material
mtllib rainbow.mtl
usemtl palette

# normals
vn -1 0 0
vn 1 0 0
vn 0 0 1
vn 0 0 -1
vn 0 -1 0
vn 0 1 0

# texcoords
vt 0.943359 0.5
vt 0.947266 0.5
vt 0.951172 0.5
vt 0.955078 0.5
vt 0.970703 0.5
vt 0.974609 0.5
vt 0.978516 0.5
vt 0.982422 0.5
vt 0.986328 0.5
vt 0.990234 0.5

# verts
v -19 1 4
v -19 1 -4
v -19 4 4
v -19 4 -4
v -18 4 4
v -18 4 -4
v -18 6 4
v -18 6 -4
v -17 6 4
v -17 6 -4
v -17 7 4
v -17 7 -4
v -16 7 4
v -16 7 -4
v -16 9 4
v -16 9 -4
v -15 9 4
v -15 9 -4
v -15 10 4
v -15 10 -4
v -14 10 4
v -14 10 -4
v -14 11 4
v -14 11 -4
v -13 11 4
v -13 11 -4
v -13 12 4
v -13 12 -4
v -11 12 4
v -11 12 -4
v -11 13 4
v -11 13 -4
v -10 13 4
v -10 13 -4
v -10 14 4
v -10 14 -4
v -8 14 4
v -8 14 -4
v -8 15 4
v -8 15 -4
v -4 15 4
v -4 15 -4
v -4 16 4
v -4 16 -4
v 3 12 4
v 3 12 -4
v 3 13 4
v 3 13 -4
v 6 11 4
v 6 11 -4
v 6 12 4
v 6 12 -4
v 7 10 4
v 7 10 -4
v 7 11 4
v 7 11 -4
v 9 9 4
v 9 9 -4
v 9 10 4
v 9 10 -4
v 11 8 4
v 11 8 -4
v 11 9 4
v 11 9 -4
v 13 6 4
v 13 6 -4
v 13 8 4
v 13 8 -4
v 14 5 4
v 14 5 -4
v 14 6 4
v 14 6 -4
v 15 3 4
v 15 3 -4
v 15 5 4
v 15 5 -4
v 16 1 4
v 16 1 -4
v 16 3 4
v 16 3 -4
v -16 1 4
v -16 1 -4
v -16 3 4
v -16 3 -4
v -15 3 4
v -15 3 -4
v -15 5 4
v -15 5 -4
v -14 5 4
v -14 5 -4
v -14 6 4
v -14 6 -4
v -13 6 4
v -13 6 -4
v -13 8 4
v -13 8 -4
v -11 8 4
v -11 8 -4
v -11 9 4
v -11 9 -4
v -9 9 4
v -9 9 -4
v -9 10 4
v -9 10 -4
v -7 10 4
v -7 10 -4
v -7 11 4
v -7 11 -4
v -6 11 4
v -6 11 -4
v -6 12 4
v -6 12 -4
v -3 12 4
v -3 12 -4
v -3 13 4
v -3 13 -4
v 4 15 4
v 4 15 -4
v 4 16 4
v 4 16 -4
v 8 14 4
v 8 14 -4
v 8 15 4
v 8 15 -4
v 10 13 4
v 10 13 -4
v 10 14 4
v 10 14 -4
v 11 12 4
v 11 12 -4
v 11 13 4
v 11 13 -4
v 13 11 4
v 13 11 -4
v 13 12 4
v 13 12 -4
v 14 10 4
v 14 10 -4
v 14 11 4
v 14 11 -4
v 15 9 4
v 15 9 -4
v 15 10 4
v 15 10 -4
v 16 7 4
v 16 7 -4
v 16 9 4
v 16 9 -4
v 17 6 4
v 17 6 -4
v 17 7 4
v 17 7 -4
v 18 4 4
v 18 4 -4
v 18 6 4
v 18 6 -4
v 19 1 4
v 19 1 -4
v 19 4 4
v 19 4 -4
v -19 1 4
v -19 4 4
v -18 4 4
v -18 6 4
v -17 1 4
v -17 6 4
v -17 7 4
v -16 1 4
v -16 3 4
v -16 7 4
v -16 9 4
v -15 3 4
v -15 5 4
v -15 9 4
v -15 10 4
v -14 5 4
v -14 6 4
v -14 10 4
v -14 11 4
v -13 6 4
v -13 8 4
v -13 11 4
v -13 12 4
v -11 8 4
v -11 9 4
v -11 12 4
v -11 13 4
v -10 13 4
v -10 14 4
v -9 9 4
v -9 10 4
v -9 14 4
v -8 14 4
v -8 15 4
v -7 10 4
v -7 11 4
v -7 15 4
v -6 11 4
v -6 12 4
v -6 15 4
v -4 12 4
v -4 15 4
v -4 16 4
v -3 12 4
v -3 13 4
v -2 13 4
v -2 16 4
v 2 13 4
v 2 16 4
v 3 12 4
v 3 13 4
v 4 12 4
v 4 15 4
v 4 16 4
v 6 11 4
v 6 12 4
v 6 15 4
v 7 10 4
v 7 11 4
v 7 15 4
v 8 14 4
v 8 15 4
v 9 9 4
v 9 10 4
v 9 14 4
v 10 13 4
v 10 14 4
v 11 8 4
v 11 9 4
v 11 12 4
v 11 13 4
v 13 6 4
v 13 8 4
v 13 11 4
v 13 12 4
v 14 5 4
v 14 6 4
v 14 10 4
v 14 11 4
v 15 3 4
v 15 5 4
v 15 9 4
v 15 10 4
v 16 1 4
v 16 3 4
v 16 7 4
v 16 9 4
v 17 1 4
v 17 6 4
v 17 7 4
v 18 4 4
v 18 6 4
v 19 1 4
v 19 4 4
v -19 1 -4
v -19 4 -4
v -18 4 -4
v -18 6 -4
v -17 1 -4
v -17 6 -4
v -17 7 -4
v -16 1 -4
v -16 3 -4
v -16 7 -4
v -16 9 -4
v -15 3 -4
v -15 5 -4
v -15 9 -4
v -15 10 -4
v -14 5 -4
v -14 6 -4
v -14 10 -4
v -14 11 -4
v -13 6 -4
v -13 8 -4
v -13 11 -4
v -13 12 -4
v -11 8 -4
v -11 9 -4
v -11 12 -4
v -11 13 -4
v -10 13 -4
v -10 14 -4
v -9 9 -4
v -9 10 -4
v -9 14 -4
v -8 14 -4
v -8 15 -4
v -7 10 -4
v -7 11 -4
v -7 15 -4
v -6 11 -4
v -6 12 -4
v -6 15 -4
v -4 12 -4
v -4 15 -4
v -4 16 -4
v -3 12 -4
v -3 13 -4
v -2 13 -4
v -2 16 -4
v 2 13 -4
v 2 16 -4
v 3 12 -4
v 3 13 -4
v 4 12 -4
v 4 15 -4
v 4 16 -4
v 6 11 -4
v 6 12 -4
v 6 15 -4
v 7 10 -4
v 7 11 -4
v 7 15 -4
v 8 14 -4
v 8 15 -4
v 9 9 -4
v 9 10 -4
v 9 14 -4
v 10 13 -4
v 10 14 -4
v 11 8 -4
v 11 9 -4
v 11 12 -4
v 11 13 -4
v 13 6 -4
v 13 8 -4
v 13 11 -4
v 13 12 -4
v 14 5 -4
v 14 6 -4
v 14 10 -4
v 14 11 -4
v 15 3 -4
v 15 5 -4
v 15 9 -4
v 15 10 -4
v 16 1 -4
v 16 3 -4
v 16 7 -4
v 16 9 -4
v 17 1 -4
v 17 6 -4
v 17 7 -4
v 18 4 -4
v 18 6 -4
v 19 1 -4
v 19 4 -4
v -19 1 4
v -17 1 4
v -16 1 4
v 16 1 4
v 17 1 4
v 19 1 4
v -19 1 -4
v -17 1 -4
v -16 1 -4
v 16 1 -4
v 17 1 -4
v 19 1 -4
v -16 3 4
v -15 3 4
v 15 3 4
v 16 3 4
v -16 3 -4
v -15 3 -4
v 15 3 -4
v 16 3 -4
v -15 5 4
v -14 5 4
v 14 5 4
v 15 5 4
v -15 5 -4
v -14 5 -4
v 14 5 -4
v 15 5 -4
v -14 6 4
v -13 6 4
v 13 6 4
v 14 6 4
v -14 6 -4
v -13 6 -4
v 13 6 -4
v 14 6 -4
v -13 8 4
v -11 8 4
v 11 8 4
v 13 8 4
v -13 8 -4
v -11 8 -4
v 11 8 -4
v 13 8 -4
v -11 9 4
v -9 9 4
v 9 9 4
v 11 9 4
v -11 9 -4
v -9 9 -4
v 9 9 -4
v 11 9 -4
v -9 10 4
v -7 10 4
v 7 10 4
v 9 10 4
v -9 10 -4
v -7 10 -4
v 7 10 -4
v 9 10 -4
v -7 11 4
v -6 11 4
v 6 11 4
v 7 11 4
v -7 11 -4
v -6 11 -4
v 6 11 -4
v 7 11 -4
v -6 12 4
v -4 12 4
v -3 12 4
v 3 12 4
v 4 12 4
v 6 12 4
v -6 12 -4
v -4 12 -4
v -3 12 -4
v 3 12 -4
v 4 12 -4
v 6 12 -4
v -3 13 4
v -2 13 4
v 2 13 4
v 3 13 4
v -3 13 -4
v -2 13 -4
v 2 13 -4
v 3 13 -4
v -19 4 4
v -18 4 4
v 18 4 4
v 19 4 4
v -19 4 -4
v -18 4 -4
v 18 4 -4
v 19 4 -4
v -18 6 4
v -17 6 4
v 17 6 4
v 18 6 4
v -18 6 -4
v -17 6 -4
v 17 6 -4
v 18 6 -4
v -17 7 4
v -16 7 4
v 16 7 4
v 17 7 4
v -17 7 -4
v -16 7 -4
v 16 7 -4
v 17 7 -4
v -16 9 4
v -15 9 4
v 15 9 4
v 16 9 4
v -16 9 -4
v -15 9 -4
v 15 9 -4
v 16 9 -4
v -15 10 4
v -14 10 4
v 14 10 4
v 15 10 4
v -15 10 -4
v -14 10 -4
v 14 10 -4
v 15 10 -4
v -14 11 4
v -13 11 4
v 13 11 4
v 14 11 4
v -14 11 -4
v -13 11 -4
v 13 11 -4
v 14 11 -4
v -13 12 4
v -11 12 4
v 11 12 4
v 13 12 4
v -13 12 -4
v -11 12 -4
v 11 12 -4
v 13 12 -4
v -11 13 4
v -10 13 4
v 10 13 4
v 11 13 4
v -11 13 -4
v -10 13 -4
v 10 13 -4
v 11 13 -4
v -10 14 4
v -9 14 4
v -8 14 4
v 8 14 4
v 9 14 4
v 10 14 4
v -10 14 -4
v -9 14 -4
v -8 14 -4
v 8 14 -4
v 9 14 -4
v 10 14 -4
v -8 15 4
v -7 15 4
v -6 15 4
v -4 15 4
v 4 15 4
v 6 15 4
v 7 15 4
v 8 15 4
v -8 15 -4
v -7 15 -4
v -6 15 -4
v -4 15 -4
v 4 15 -4
v 6 15 -4
v 7 15 -4
v 8 15 -4
v -4 16 4
v -2 16 4
v 2 16 4
v 4 16 4
v -4 16 -4
v -2 16 -4
v 2 16 -4
v 4 16 -4

# faces
f 3/5/1 2/5/1 1/5/1
f 4/5/1 2/5/1 3/5/1
f 7/5/1 6/5/1 5/5/1
f 8/5/1 6/5/1 7/5/1
f 11/6/1 10/6/1 9/6/1
f 12/6/1 10/6/1 11/6/1
f 15/6/1 14/6/1 13/6/1
f 16/6/1 14/6/1 15/6/1
f 19/7/1 18/7/1 17/7/1
f 20/7/1 18/7/1 19/7/1
f 23/7/1 22/7/1 21/7/1
f 24/7/1 22/7/1 23/7/1
f 27/8/1 26/8/1 25/8/1
f 28/8/1 26/8/1 27/8/1
f 31/9/1 30/9/1 29/9/1
f 32/9/1 30/9/1 31/9/1
f 35/9/1 34/9/1 33/9/1
f 36/9/1 34/9/1 35/9/1
f 39/10/1 38/10/1 37/10/1
f 40/10/1 38/10/1 39/10/1
f 43/3/1 42/3/1 41/3/1
f 44/3/1 42/3/1 43/3/1
f 47/3/1 46/3/1 45/3/1
f 48/3/1 46/3/1 47/3/1
f 51/1/1 50/1/1 49/1/1
f 52/1/1 50/1/1 51/1/1
f 55/10/1 54/10/1 53/10/1
f 56/10/1 54/10/1 55/10/1
f 59/9/1 58/9/1 57/9/1
f 60/9/1 58/9/1 59/9/1
f 63/8/1 62/8/1 61/8/1
f 64/8/1 62/8/1 63/8/1
f 67/7/1 66/7/1 65/7/1
f 68/7/1 66/7/1 67/7/1
f 71/7/1 70/7/1 69/7/1
f 72/7/1 70/7/1 71/7/1
f 75/6/1 74/6/1 73/6/1
f 76/6/1 74/6/1 75/6/1
f 79/6/1 78/6/1 77/6/1
f 80/6/1 78/6/1 79/6/1
f 81/6/2 82/6/2 83/6/2
f 83/6/2 82/6/2 84/6/2
f 85/6/2 86/6/2 87/6/2
f 87/6/2 86/6/2 88/6/2
f 89/7/2 90/7/2 91/7/2
f 91/7/2 90/7/2 92/7/2
f 93/7/2 94/7/2 95/7/2
f 95/7/2 94/7/2 96/7/2
f 97/8/2 98/8/2 99/8/2
f 99/8/2 98/8/2 100/8/2
f 101/9/2 102/9/2 103/9/2
f 103/9/2 102/9/2 104/9/2
f 105/10/2 106/10/2 107/10/2
f 107/10/2 106/10/2 108/10/2
f 109/1/2 110/1/2 111/1/2
f 111/1/2 110/1/2 112/1/2
f 113/3/2 114/3/2 115/3/2
f 115/3/2 114/3/2 116/3/2
f 117/3/2 118/3/2 119/3/2
f 119/3/2 118/3/2 120/3/2
f 121/10/2 122/10/2 123/10/2
f 123/10/2 122/10/2 124/10/2
f 125/9/2 126/9/2 127/9/2
f 127/9/2 126/9/2 128/9/2
f 129/9/2 130/9/2 131/9/2
f 131/9/2 130/9/2 132/9/2
f 133/8/2 134/8/2 135/8/2
f 135/8/2 134/8/2 136/8/2
f 137/7/2 138/7/2 139/7/2
f 139/7/2 138/7/2 140/7/2
f 141/7/2 142/7/2 143/7/2
f 143/7/2 142/7/2 144/7/2
f 145/6/2 146/6/2 147/6/2
f 147/6/2 146/6/2 148/6/2
f 149/6/2 150/6/2 151/6/2
f 151/6/2 150/6/2 152/6/2
f 153/5/2 154/5/2 155/5/2
f 155/5/2 154/5/2 156/5/2
f 157/5/2 158/5/2 159/5/2
f 159/5/2 158/5/2 160/5/2
f 163/5/3 162/5/3 161/5/3
f 165/5/3 163/5/3 161/5/3
f 165/5/3 164/5/3 163/5/3
f 166/5/3 164/5/3 165/5/3
f 168/6/3 166/6/3 165/6/3
f 168/6/3 167/6/3 166/6/3
f 169/6/3 167/6/3 168/6/3
f 170/6/3 167/6/3 169/6/3
f 172/6/3 171/6/3 170/6/3
f 172/6/3 170/6/3 169/6/3
f 173/6/3 171/6/3 172/6/3
f 174/6/3 171/6/3 173/6/3
f 176/7/3 175/7/3 174/7/3
f 176/7/3 174/7/3 173/7/3
f 177/7/3 175/7/3 176/7/3
f 178/7/3 175/7/3 177/7/3
f 180/7/3 179/7/3 178/7/3
f 180/7/3 178/7/3 177/7/3
f 181/7/3 179/7/3 180/7/3
f 182/7/3 179/7/3 181/7/3
f 184/8/3 183/8/3 182/8/3
f 184/8/3 182/8/3 181/8/3
f 185/8/3 183/8/3 184/8/3
f 186/8/3 183/8/3 185/8/3
f 188/9/3 187/9/3 186/9/3
f 188/9/3 186/9/3 185/9/3
f 190/9/3 188/9/3 185/9/3
f 190/9/3 189/9/3 188/9/3
f 191/9/3 189/9/3 190/9/3
f 192/9/3 189/9/3 191/9/3
f 193/10/3 192/10/3 191/10/3
f 195/10/3 193/10/3 191/10/3
f 195/10/3 194/10/3 193/10/3
f 196/10/3 194/10/3 195/10/3
f 197/10/3 194/10/3 196/10/3
f 198/1/3 197/1/3 196/1/3
f 199/1/3 197/1/3 198/1/3
f 200/1/3 197/1/3 199/1/3
f 201/2/3 200/2/3 199/2/3
f 202/2/3 200/2/3 201/2/3
f 204/3/3 202/3/3 201/3/3
f 204/3/3 203/3/3 202/3/3
f 205/3/3 203/3/3 204/3/3
f 206/3/3 203/3/3 205/3/3
f 207/3/3 203/3/3 206/3/3
f 208/4/3 207/4/3 206/4/3
f 209/4/3 207/4/3 208/4/3
f 211/3/3 209/3/3 208/3/3
f 212/3/3 211/3/3 210/3/3
f 213/3/3 209/3/3 211/3/3
f 213/3/3 211/3/3 212/3/3
f 214/3/3 209/3/3 213/3/3
f 216/2/3 213/2/3 212/2/3
f 217/2/3 213/2/3 216/2/3
f 219/1/3 216/1/3 215/1/3
f 219/1/3 217/1/3 216/1/3
f 220/1/3 217/1/3 219/1/3
f 221/10/3 219/10/3 218/10/3
f 221/10/3 220/10/3 219/10/3
f 222/10/3 220/10/3 221/10/3
f 224/10/3 221/10/3 218/10/3
f 225/10/3 221/10/3 224/10/3
f 226/9/3 224/9/3 223/9/3
f 226/9/3 225/9/3 224/9/3
f 227/9/3 225/9/3 226/9/3
f 229/9/3 226/9/3 223/9/3
f 230/9/3 226/9/3 229/9/3
f 231/9/3 226/9/3 230/9/3
f 233/8/3 229/8/3 228/8/3
f 233/8/3 230/8/3 229/8/3
f 234/8/3 230/8/3 233/8/3
f 235/8/3 230/8/3 234/8/3
f 237/7/3 233/7/3 232/7/3
f 237/7/3 234/7/3 233/7/3
f 238/7/3 234/7/3 237/7/3
f 239/7/3 234/7/3 238/7/3
f 241/7/3 237/7/3 236/7/3
f 241/7/3 238/7/3 237/7/3
f 242/7/3 238/7/3 241/7/3
f 243/7/3 238/7/3 242/7/3
f 245/6/3 241/6/3 240/6/3
f 245/6/3 242/6/3 241/6/3
f 246/6/3 242/6/3 245/6/3
f 247/6/3 242/6/3 246/6/3
f 248/6/3 245/6/3 244/6/3
f 248/6/3 246/6/3 245/6/3
f 249/6/3 246/6/3 248/6/3
f 250/6/3 246/6/3 249/6/3
f 251/5/3 249/5/3 248/5/3
f 252/5/3 249/5/3 251/5/3
f 253/5/3 251/5/3 248/5/3
f 254/5/3 251/5/3 253/5/3
f 255/5/4 256/5/4 257/5/4
f 255/5/4 257/5/4 259/5/4
f 257/5/4 258/5/4 259/5/4
f 259/5/4 258/5/4 260/5/4
f 259/6/4 260/6/4 262/6/4
f 260/6/4 261/6/4 262/6/4
f 262/6/4 261/6/4 263/6/4
f 263/6/4 261/6/4 264/6/4
f 264/6/4 265/6/4 266/6/4
f 263/6/4 264/6/4 266/6/4
f 266/6/4 265/6/4 267/6/4
f 267/6/4 265/6/4 268/6/4
f 268/7/4 269/7/4 270/7/4
f 267/7/4 268/7/4 270/7/4
f 270/7/4 269/7/4 271/7/4
f 271/7/4 269/7/4 272/7/4
f 272/7/4 273/7/4 274/7/4
f 271/7/4 272/7/4 274/7/4
f 274/7/4 273/7/4 275/7/4
f 275/7/4 273/7/4 276/7/4
f 276/8/4 277/8/4 278/8/4
f 275/8/4 276/8/4 278/8/4
f 278/8/4 277/8/4 279/8/4
f 279/8/4 277/8/4 280/8/4
f 280/9/4 281/9/4 282/9/4
f 279/9/4 280/9/4 282/9/4
f 279/9/4 282/9/4 284/9/4
f 282/9/4 283/9/4 284/9/4
f 284/9/4 283/9/4 285/9/4
f 285/9/4 283/9/4 286/9/4
f 285/10/4 286/10/4 287/10/4
f 285/10/4 287/10/4 289/10/4
f 287/10/4 288/10/4 289/10/4
f 289/10/4 288/10/4 290/10/4
f 290/10/4 288/10/4 291/10/4
f 290/1/4 291/1/4 292/1/4
f 292/1/4 291/1/4 293/1/4
f 293/1/4 291/1/4 294/1/4
f 293/2/4 294/2/4 295/2/4
f 295/2/4 294/2/4 296/2/4
f 295/3/4 296/3/4 298/3/4
f 296/3/4 297/3/4 298/3/4
f 298/3/4 297/3/4 299/3/4
f 299/3/4 297/3/4 300/3/4
f 300/3/4 297/3/4 301/3/4
f 300/4/4 301/4/4 302/4/4
f 302/4/4 301/4/4 303/4/4
f 302/3/4 303/3/4 305/3/4
f 304/3/4 305/3/4 306/3/4
f 305/3/4 303/3/4 307/3/4
f 306/3/4 305/3/4 307/3/4
f 307/3/4 303/3/4 308/3/4
f 306/2/4 307/2/4 310/2/4
f 310/2/4 307/2/4 311/2/4
f 309/1/4 310/1/4 313/1/4
f 310/1/4 311/1/4 313/1/4
f 313/1/4 311/1/4 314/1/4
f 312/10/4 313/10/4 315/10/4
f 313/10/4 314/10/4 315/10/4
f 315/10/4 314/10/4 316/10/4
f 312/10/4 315/10/4 318/10/4
f 318/10/4 315/10/4 319/10/4
f 317/9/4 318/9/4 320/9/4
f 318/9/4 319/9/4 320/9/4
f 320/9/4 319/9/4 321/9/4
f 317/9/4 320/9/4 323/9/4
f 323/9/4 320/9/4 324/9/4
f 324/9/4 320/9/4 325/9/4
f 322/8/4 323/8/4 327/8/4
f 323/8/4 324/8/4 327/8/4
f 327/8/4 324/8/4 328/8/4
f 328/8/4 324/8/4 329/8/4
f 326/7/4 327/7/4 331/7/4
f 327/7/4 328/7/4 331/7/4
f 331/7/4 328/7/4 332/7/4
f 332/7/4 328/7/4 333/7/4
f 330/7/4 331/7/4 335/7/4
f 331/7/4 332/7/4 335/7/4
f 335/7/4 332/7/4 336/7/4
f 336/7/4 332/7/4 337/7/4
f 334/6/4 335/6/4 339/6/4
f 335/6/4 336/6/4 339/6/4
f 339/6/4 336/6/4 340/6/4
f 340/6/4 336/6/4 341/6/4
f 338/6/4 339/6/4 342/6/4
f 339/6/4 340/6/4 342/6/4
f 342/6/4 340/6/4 343/6/4
f 343/6/4 340/6/4 344/6/4
f 342/5/4 343/5/4 345/5/4
f 345/5/4 343/5/4 346/5/4
f 342/5/4 345/5/4 347/5/4
f 347/5/4 345/5/4 348/5/4
f 355/5/5 350/5/5 349/5/5
f 356/6/5 351/6/5 350/6/5
f 356/5/5 350/5/5 355/5/5
f 357/6/5 351/6/5 356/6/5
f 358/6/5 353/6/5 352/6/5
f 359/5/5 354/5/5 353/5/5
f 359/6/5 353/6/5 358/6/5
f 360/5/5 354/5/5 359/5/5
f 365/6/5 362/6/5 361/6/5
f 366/6/5 362/6/5 365/6/5
f 367/6/5 364/6/5 363/6/5
f 368/6/5 364/6/5 367/6/5
f 373/7/5 370/7/5 369/7/5
f 374/7/5 370/7/5 373/7/5
f 375/7/5 372/7/5 371/7/5
f 376/7/5 372/7/5 375/7/5
f 381/7/5 378/7/5 377/7/5
f 382/7/5 378/7/5 381/7/5
f 383/7/5 380/7/5 379/7/5
f 384/7/5 380/7/5 383/7/5
f 389/8/5 386/8/5 385/8/5
f 390/8/5 386/8/5 389/8/5
f 391/8/5 388/8/5 387/8/5
f 392/8/5 388/8/5 391/8/5
f 397/9/5 394/9/5 393/9/5
f 398/9/5 394/9/5 397/9/5
f 399/9/5 396/9/5 395/9/5
f 400/9/5 396/9/5 399/9/5
f 405/10/5 402/10/5 401/10/5
f 406/10/5 402/10/5 405/10/5
f 407/10/5 404/10/5 403/10/5
f 408/10/5 404/10/5 407/10/5
f 413/1/5 410/1/5 409/1/5
f 414/1/5 410/1/5 413/1/5
f 415/1/5 412/1/5 411/1/5
f 416/1/5 412/1/5 415/1/5
f 423/2/5 418/2/5 417/2/5
f 424/3/5 419/3/5 418/3/5
f 424/2/5 418/2/5 423/2/5
f 425/3/5 419/3/5 424/3/5
f 426/3/5 421/3/5 420/3/5
f 427/2/5 422/2/5 421/2/5
f 427/3/5 421/3/5 426/3/5
f 428/2/5 422/2/5 427/2/5
f 433/3/5 430/3/5 429/3/5
f 434/4/5 431/4/5 430/4/5
f 434/3/5 430/3/5 433/3/5
f 435/3/5 432/3/5 431/3/5
f 435/4/5 431/4/5 434/4/5
f 436/3/5 432/3/5 435/3/5
f 437/5/6 438/5/6 441/5/6
f 441/5/6 438/5/6 442/5/6
f 439/5/6 440/5/6 443/5/6
f 443/5/6 440/5/6 444/5/6
f 445/5/6 446/5/6 449/5/6
f 449/5/6 446/5/6 450/5/6
f 447/5/6 448/5/6 451/5/6
f 451/5/6 448/5/6 452/5/6
f 453/6/6 454/6/6 457/6/6
f 457/6/6 454/6/6 458/6/6
f 455/6/6 456/6/6 459/6/6
f 459/6/6 456/6/6 460/6/6
f 461/6/6 462/6/6 465/6/6
f 465/6/6 462/6/6 466/6/6
f 463/6/6 464/6/6 467/6/6
f 467/6/6 464/6/6 468/6/6
f 469/7/6 470/7/6 473/7/6
f 473/7/6 470/7/6 474/7/6
f 471/7/6 472/7/6 475/7/6
f 475/7/6 472/7/6 476/7/6
f 477/7/6 478/7/6 481/7/6
f 481/7/6 478/7/6 482/7/6
f 479/7/6 480/7/6 483/7/6
f 483/7/6 480/7/6 484/7/6
f 485/8/6 486/8/6 489/8/6
f 489/8/6 486/8/6 490/8/6
f 487/8/6 488/8/6 491/8/6
f 491/8/6 488/8/6 492/8/6
f 493/9/6 494/9/6 497/9/6
f 497/9/6 494/9/6 498/9/6
f 495/9/6 496/9/6 499/9/6
f 499/9/6 496/9/6 500/9/6
f 501/9/6 502/9/6 507/9/6
f 502/10/6 503/10/6 508/10/6
f 507/9/6 502/9/6 508/9/6
f 508/10/6 503/10/6 509/10/6
f 504/10/6 505/10/6 510/10/6
f 505/9/6 506/9/6 511/9/6
f 510/10/6 505/10/6 511/10/6
f 511/9/6 506/9/6 512/9/6
f 513/10/6 514/10/6 521/10/6
f 514/1/6 515/1/6 522/1/6
f 521/10/6 514/10/6 522/10/6
f 515/2/6 516/2/6 523/2/6
f 522/1/6 515/1/6 523/1/6
f 523/2/6 516/2/6 524/2/6
f 517/2/6 518/2/6 525/2/6
f 518/1/6 519/1/6 526/1/6
f 525/2/6 518/2/6 526/2/6
f 519/10/6 520/10/6 527/10/6
f 526/1/6 519/1/6 527/1/6
f 527/10/6 520/10/6 528/10/6
f 529/3/6 530/3/6 533/3/6
f 530/4/6 531/4/6 534/4/6
f 533/3/6 530/3/6 534/3/6
f 531/3/6 532/3/6 535/3/6
f 534/4/6 531/4/6 535/4/6
f 535/3/6 532/3/6 536/3/6
